<?xml version="1.0" encoding="utf-8"?>
<!-- Generator: Adobe Illustrator 23.0.3, SVG Export Plug-In . SVG Version: 6.00 Build 0)  -->
<svg version="1.1" id="Calque_1" xmlns="http://www.w3.org/2000/svg" xmlns:xlink="http://www.w3.org/1999/xlink" x="0px" y="0px"
	 viewBox="0 0 237.9 161.1" style="enable-background:new 0 0 237.9 161.1;" xml:space="preserve">
<style type="text/css">
	.st0{fill:#FFFFFF;}
</style>
<g>
	<path class="st0" d="M236.1,21.4c-1.6-6.7-9.5-20.1-25.9-21.4c-4.3-0.3-9.1,1.1-14.2,3.3c-4.9,2.2-9,4.9-12.2,8.3
		c-3.3,3.4-5.4,6.9-6.9,10.3c-3,7.1,11.1-11.6,28.4-9.8c2.2,0.2,10.8,1.4,13.6,10.8c-3.3-1.7-6.6-2.6-10-2.6c-3.4,0-7,0.8-10.7,2.4
		c-3.6,1.6-6.8,3.7-9.6,6.3c-2.8,2.6-5,5.6-6.8,8.9c-1.8,3.3-2.9,6.8-3.4,10.5c-0.5,3.7-0.4,7.3,0.5,10.7c1.2,5,3.5,9,6.9,11.9
		c3.5,3,7.6,4.6,12.6,5s10.2-0.7,15.8-3.2c6.4-2.8,11.6-6.7,15.6-11.7c4-5,6.5-10.8,7.6-17.6C238.5,37.1,238,29.6,236.1,21.4z
		 M220.3,53.6c-1.9,4.4-4.9,7.4-8.9,9.2c-3.8,1.7-7.4,1.7-10.6-0.1c-3.2-1.8-5.4-5.1-6.5-9.8c-0.8-3.2-0.8-6.2-0.2-9.1
		c0.6-2.8,1.8-5.3,3.6-7.5c1.8-2.1,3.9-3.7,6.4-4.8c2.3-1,4.8-1.5,7.2-1.3c2.4,0.2,4.6,1.2,6.4,2.8c1.8,1.6,3.1,3.9,3.8,6.9
		C222.6,44.6,222.2,49.2,220.3,53.6z"/>
	<path class="st0" d="M63.4,112.4c-1.6-1.8-3.7-3.3-6.3-4.2c-2.6-1-5.5-1.5-8.9-1.7c2.6-3.8,4.4-7.3,5.6-10.6
		c1.1-3.3,1.2-6.7,0.4-10.2c-0.6-2.7-1.8-4.9-3.6-6.7c-1.7-1.8-4-3.1-6.7-3.8c-2.7-0.8-5.8-0.9-9.1-0.5c-3.4,0.5-6.9,1.5-10.8,3.2
		c-4.4,1.9-8.2,4.2-11.4,6.9c-3.3,2.7-5.9,5.5-7.8,8.4c-1.8,2.6-3,5.1-3.8,7.4c0,0.1-0.1,0.2-0.1,0.3c-0.6,1.2-1,2.9-0.8,5.1
		c0,0.6,0.1,1.2,0.2,1.7c0.1,0.7,0.3,1.5,0.5,2.3l8,33.5c0,0.1-0.1,0.1-0.1,0.2l2.8,11.8c0.2,0.2,0.4,0.4,0.6,0.6
		c0.1,0.2,0.3,0.3,0.5,0.4c1.5,1.2,3.3,2.2,5.5,3.1c0.6,0.3,1.3,0.5,2,0.7c1,0.4,2,0.7,2.6,0.6c1.8,0.3,3.8,0.4,6,0.4
		c4.1-0.1,8.5-1.3,13.2-3.3c4.6-2,8.7-4.6,12.2-7.6c3.5-3,6.4-6.3,8.6-9.9c2.2-3.6,3.7-7.2,4.4-10.8c0.7-3.6,0.7-7-0.1-10.2
		C66.2,116.5,65,114.3,63.4,112.4z M50.4,135.3c-1,2.8-2.5,5.2-4.5,7.2c-2,2.1-4.2,3.7-6.6,4.7c-4.2,1.9-7.8,2.1-10.7,0.8
		c-1.5-0.7-3.1-1.8-4.7-3.2l-10-41.8c0.2-0.6,0.3-1.2,0.4-1.8c0.4-1.9,1-3.5,1.7-5c0.7-1.4,1.7-2.7,3.1-4c1.4-1.3,3.3-2.5,5.7-3.5
		c3.5-1.5,6.6-1.8,9.1-0.8c2.5,1,4.2,2.9,4.8,5.6c0.8,3.6,0.2,6.9-2,9.9c-2.1,3.1-3.7,4.8-7.3,6.4L27,111c-2.8,1.2-4.8,2.7-5.9,4.3
		c-1.2,1.7-1.5,3.3-1.1,5c0.4,1.7,1.3,2.8,2.7,3.3c1.4,0.5,3.2,0.2,5.4-0.7c0.5-0.2,1.5-0.8,3.1-1.6c1.6-0.9,1.5-0.9,2.2-1.2
		c4.5-2,8.2-2.3,11.3-1.1c3.1,1.2,5.1,3.9,6.1,8C51.5,129.7,51.4,132.5,50.4,135.3z"/>
	<path class="st0" d="M172.6,43.4c-2.5-4.2-5.5-7.3-8.9-9.3c-3.4-2-7.2-3-11.4-2.9c-4.2,0.1-8.8,1.2-13.7,3.3
		c-4.3,1.9-8,4.3-11.2,7.2c-3.2,2.9-5.8,6.1-7.8,9.6c-2,3.5-3.3,7.2-3.9,11.1c-0.6,3.8-0.5,7.4,0.3,10.9c-0.4-0.6-0.8-1.2-1.2-1.7
		c-2.1-2.7-4.7-4.6-7.8-5.8c-2.7-1.1-5.6-1.5-8.8-1.5c0.2-0.3,0.4-0.7,0.4-1.1c0-1.1-0.9-2-2-2c-1.1,0-2,0.9-2,2
		c0,0.5,0.2,1,0.6,1.4c-1.2,0.2-2.5,0.4-3.8,0.7c0,0,0-0.1,0-0.1c0-2.7-2.2-4.9-4.9-4.9c-2.7,0-4.9,2.2-4.9,4.9
		c0,1.3,0.5,2.4,1.3,3.3c-3.6,1.8-6.9,3.8-9.8,6.3c-3.2,2.8-5.8,5.9-7.8,9.4c-1.9,3.4-3.2,7-3.7,10.9c-0.6,3.8-0.4,7.8,0.6,11.7
		c0.9,3.9,2.5,7.2,4.5,9.8c2.1,2.6,4.7,4.6,7.8,5.8c3.1,1.2,6.6,1.7,10.3,1.4c3.8-0.3,7.8-1.4,12.2-3.3c4.4-1.9,8.2-4.3,11.4-7.1
		c3.2-2.8,5.8-5.9,7.8-9.4c2-3.5,3.2-7.1,3.8-11c0.6-3.8,0.4-7.7-0.6-11.6c0-0.1-0.1-0.3-0.1-0.4c0.3,0.5,0.7,1,1,1.5
		c1.9,2.6,4.3,4.5,7.2,5.8c2.8,1.3,5.9,1.9,9.4,1.8c3.4-0.1,6.9-0.9,10.5-2.5c3.8-1.7,7.1-3.9,9.8-6.7c2.8-2.8,5.1-6.1,7-10
		c1.7,9.8,1.7,17.2-0.1,22.2c-0.9,2.5-2.2,4.6-3.9,6.5c-1.6,1.8-3.4,3.1-5.4,4.1l0,0c-13.1,6.1-21.4,3.1-24.8,1.3
		c-0.2,0.9-0.2,1.7,0,2.4c0.6,2.4,2.1,4.5,4.7,6.2c7,4.8,16.7,2.7,21.6,0.6c5-2.2,9.3-5.1,12.9-8.5c3.5-3.5,6.3-7.6,8.3-12.3
		c2-4.8,3.1-10.1,3.4-15.9c0.3-5.8-0.4-12.1-2-18.9C177.2,52.7,175.2,47.5,172.6,43.4z M104,101.9c-1.9,4.1-5,7.1-9.3,9
		c-2.9,1.3-5.5,1.7-8,1.3c-2.5-0.4-4.5-1.6-6.3-3.7c-1.8-2-3-4.7-3.8-8.1c-0.8-3.4-1-6.7-0.4-9.7c0.6-3.1,1.7-5.7,3.5-8
		c1.8-2.3,4.1-4,6.9-5.2c4.3-1.9,8.1-2,11.4-0.2c3.3,1.8,5.5,5.4,6.8,10.7C106.1,93.1,105.8,97.8,104,101.9z M158.7,64.1
		c-0.8,2.8-2.2,5.2-4.1,7.3c-1.9,2.1-4,3.7-6.4,4.7c-3.9,1.7-7.4,1.7-10.6,0c-3.2-1.7-5.3-4.9-6.5-9.6c-1.1-4.7-0.8-9.1,1.1-13.1
		c1.8-4,4.6-6.8,8.2-8.4c2.1-0.9,4.1-1.4,6.1-1.3c2,0.1,3.8,0.6,5.4,1.5c1.6,0.9,3,2.2,4.2,4c1.2,1.7,2.1,3.8,2.7,6.2
		C159.6,58.5,159.5,61.3,158.7,64.1z"/>
	<path class="st0" d="M96.3,47.3c2.6-0.3,4.5-2.6,4.3-5.2c-0.3-2.6-2.6-4.5-5.2-4.3c-2.6,0.3-4.5,2.6-4.3,5.2
		C91.3,45.6,93.6,47.5,96.3,47.3z"/>
	<path class="st0" d="M103.8,41.1c1.3-0.1,2.3-1.3,2.2-2.6c-0.1-1.3-1.3-2.3-2.6-2.1c-1.3,0.1-2.3,1.3-2.1,2.6
		C101.3,40.3,102.5,41.3,103.8,41.1z"/>
	<path class="st0" d="M97,36.6c1.7-0.2,3-1.7,2.8-3.4c-0.2-1.7-1.7-3-3.4-2.8c-1.7,0.2-3,1.7-2.8,3.4C93.7,35.5,95.2,36.7,97,36.6z"
		/>
	<path class="st0" d="M104.1,34.7c1-0.1,1.7-1,1.6-1.9c-0.1-1-1-1.7-1.9-1.6c-1,0.1-1.7,0.9-1.6,1.9
		C102.2,34.1,103.1,34.8,104.1,34.7z"/>
	<path class="st0" d="M98.2,48.7c-2.1,0.2-3.6,2-3.4,4.1c0.2,2.1,2,3.6,4.1,3.4c2.1-0.2,3.6-2,3.4-4.1
		C102.1,50,100.3,48.5,98.2,48.7z"/>
	<path class="st0" d="M103.9,55.1c-1.1,0.1-1.9,1.1-1.8,2.1c0.1,1.1,1.1,1.8,2.1,1.7c1.1-0.1,1.9-1.1,1.7-2.1
		C106,55.8,105,55,103.9,55.1z"/>
	<path class="st0" d="M96.3,80.1c-2.7,0-4.9,2.2-4.9,4.9c0,2.7,2.2,4.9,4.9,4.9c2.7,0,4.9-2.2,4.9-4.9C101.1,82.3,99,80.1,96.3,80.1
		z"/>
	<path class="st0" d="M87.6,78.6c-1.6,0-2.8,1.3-2.8,2.8c0,1.6,1.3,2.8,2.8,2.8c1.6,0,2.8-1.3,2.8-2.8
		C90.4,79.8,89.1,78.6,87.6,78.6z"/>
</g>
</svg>
