<?xml version="1.0" encoding="utf-8"?>
<!-- Generator: Adobe Illustrator 23.0.3, SVG Export Plug-In . SVG Version: 6.00 Build 0)  -->
<svg version="1.1" id="Calque_1" xmlns="http://www.w3.org/2000/svg" xmlns:xlink="http://www.w3.org/1999/xlink" x="0px" y="0px"
	 viewBox="0 0 4500 703.2" style="enable-background:new 0 0 4500 703.2;" xml:space="preserve">
<style type="text/css">
	.st0{fill:#FFFFFF;}
</style>
<g>
	<path class="st0" d="M2882.8,0c37.5,0,73.6,6,107.7,16.9v196.7l-5.3-4.9c-5.7-5.2-12.4-10.1-20.2-14.7c-7.8-4.6-16.3-8.7-25.4-12.2
		c-9-3.4-18.4-6.3-28-8.5c-9.5-2.2-19.2-3.3-28.7-3.3c-24.9,0-48.5,4.7-69.9,14.1c-21.7,9.4-40.7,22.2-56.7,38.2
		c-15.9,15.9-28.7,35-38.1,56.5c-9.4,21.7-14.1,45.2-14.1,70.1c0,24.8,4.7,48.4,14.1,70c9.3,21.6,22.2,40.7,38.1,56.6
		c16,15.9,35.1,28.8,56.7,38.2c21.5,9.4,45,14.1,69.9,14.1c25,0,48.5-4.7,70.1-13.8c21.5-9.1,40.6-21.9,56.8-37.8
		c16.2-15.8,29.1-34.9,38.1-56.5c9.2-21.6,13.9-45.4,13.9-70.7V49c103.2,61.2,172.5,173.8,172.5,302.6
		c0,194.2-157.2,351.5-351.5,351.5c-194.2,0-351.6-157.4-351.6-351.5C2531.2,157.5,2688.6,0,2882.8,0"/>
	<path class="st0" d="M2958.7,424.9c-9.6,9.6-21.1,17.3-34.1,23c-13,5.8-27,8.7-41.8,8.7c-14.7,0-28.6-2.9-41.7-8.7
		c-13.1-5.6-24.5-13.4-34.1-23c-9.6-9.6-17.4-21.1-23-34.2c-5.7-13.1-8.7-27.1-8.7-41.7c0-14.8,2.9-28.7,8.7-41.8
		c5.6-13.1,13.4-24.5,23-34.1c9.7-9.6,21-17.3,34.1-23.1c26.1-11.4,57.4-11.4,83.5,0c13.1,5.7,24.5,13.5,34.1,23.1
		c9.6,9.6,17.4,21.1,23,34.1c5.8,13.1,8.7,27.1,8.7,41.8c0,14.6-2.9,28.6-8.7,41.7C2976.1,403.8,2968.3,415.3,2958.7,424.9"/>
	<g>
		<path class="st0" d="M351.6,0.1C157.5,0.1,0,157.4,0,351.6c0,194.2,157.5,351.5,351.6,351.5c194.2,0,351.6-157.4,351.6-351.5
			C703.2,157.4,545.8,0.1,351.6,0.1z M516.4,422c-9.4,21.7-22.2,40.6-38,56.6c-16,15.9-35.1,28.7-56.6,38.2
			c-21.6,9.4-45.1,14.1-70.1,14.1c-24.8,0-48.4-4.7-70-14.1c-21.6-9.4-40.7-22.2-56.6-38.2c-16-15.9-28.9-34.9-38.2-56.6
			c-9.3-21.5-14.1-45.2-14.1-70c0-24.9,4.9-48.4,14.1-70c9.4-21.8,22.2-40.9,38.2-57c15.8-16.2,34.9-29.1,56.6-38.5
			c21.5-9.4,45.2-14.1,70-14.1c25,0,48.5,4.7,70.1,14.1c21.6,9.4,40.6,22.3,56.6,38.5c15.8,16.1,28.6,35.3,38,57
			c9.4,21.6,14.1,45.1,14.1,70C530.5,376.8,525.8,400.3,516.4,422z"/>
		<path class="st0" d="M427.5,275.5c-9.5-9.6-21-17.4-34.2-23.2c-13-5.7-27-8.6-41.7-8.6c-14.6,0-28.7,2.9-41.7,8.6
			c-13,5.8-24.5,13.5-34.1,23.2c-9.5,9.7-17.3,21.1-23.1,34.2c-5.7,13-8.6,27.2-8.6,41.9c0,14.8,2.9,28.8,8.6,42
			c5.8,13,13.5,24.5,23.1,34.1c9.6,9.7,21.2,17.4,34.1,23.2c13,5.8,27.1,8.7,41.7,8.7c14.7,0,28.7-2.9,41.7-8.7
			c13.1-5.8,24.6-13.5,34.2-23.2c9.6-9.5,17.4-21.1,23-34.1c11.6-26.3,11.6-57.6,0-83.8C444.9,296.7,437.1,285.2,427.5,275.5z"/>
	</g>
	<g>
		<path class="st0" d="M1060.3,275.5c-9.7-9.6-21.1-17.4-34.2-23.2c-13-5.7-27-8.6-41.7-8.6c-14.7,0-28.7,2.9-41.8,8.6
			c-13.1,5.8-24.6,13.5-34.1,23.2c-9.6,9.7-17.4,21.1-23,34.2c-5.8,13-8.7,27.2-8.7,41.9c0,14.8,2.9,28.8,8.7,42
			c5.6,13,13.4,24.5,23,34.1c9.6,9.7,21.1,17.4,34.1,23.2c13.1,5.8,27,8.7,41.8,8.7c14.7,0,28.7-2.9,41.7-8.7
			c13.1-5.8,24.5-13.5,34.2-23.2c9.5-9.5,17.3-21.1,23-34.1c11.5-26.3,11.5-57.6,0-83.8C1077.5,296.7,1069.8,285.2,1060.3,275.5z"/>
		<path class="st0" d="M984.4,0.1c-194.2,0-351.6,157.4-351.6,351.5c0,194.2,157.4,351.5,351.6,351.5
			c194.1,0,351.5-157.4,351.5-351.5C1335.9,157.4,1178.5,0.1,984.4,0.1z M1149.2,422c-9.5,21.7-22.3,40.6-38.1,56.6
			c-16,15.9-35,28.7-56.7,38.2c-21.5,9.4-45.2,14.1-70,14.1c-25,0-48.5-4.7-69.9-14.1c-21.7-9.4-40.7-22.2-56.7-38.2
			c-15.9-15.9-28.7-34.9-38.1-56.6c-9.4-21.5-14.1-45.2-14.1-70c0-24.9,4.7-48.4,14.1-70c9.4-21.8,22.2-40.9,38.1-57
			c16-16.2,35-29.1,56.7-38.5c21.5-9.4,45-14.1,69.9-14.1c24.9,0,48.4,4.7,70,14.1c21.6,9.4,40.7,22.3,56.6,38.5
			c16,16.1,28.8,35.3,38.2,57c9.4,21.6,14.1,45.1,14.1,70C1163.3,376.8,1158.6,400.3,1149.2,422z"/>
	</g>
	<g>
		<path class="st0" d="M3591.5,275.4c-9.6-9.6-21.1-17.4-34.1-23.2c-13-5.7-27.1-8.6-41.6-8.6c-14.7,0-28.8,2.9-41.8,8.7
			c-13,5.7-24.5,13.4-34.2,23.1c-9.5,9.8-17.2,21.2-23,34.2c-5.7,13.1-8.7,27.2-8.7,41.9c0,14.7,3,28.8,8.7,42
			c5.8,13,13.5,24.5,23,34.2c9.7,9.7,21.2,17.4,34.2,23.2c13,5.7,27.1,8.7,41.8,8.6c14.5,0,28.7-2.9,41.6-8.6
			c13-5.8,24.6-13.5,34.1-23.2c9.6-9.6,17.4-21.1,23.1-34.2c11.4-26.3,11.4-57.6,0-83.8C3608.9,296.6,3601.1,285.1,3591.5,275.4z"/>
		<path class="st0" d="M3515.7,0c-194.2,0-351.6,157.4-351.6,351.5c0,194.2,157.4,351.6,351.6,351.6
			c194.1,0,351.5-157.4,351.5-351.6C3867.2,157.5,3709.8,0,3515.7,0z M3680.5,421.9c-9.5,21.7-22.2,40.7-38.2,56.6
			c-15.9,16-34.9,28.8-56.6,38.2c-21.7,9.3-45.1,14.1-70.1,14.1c-24.8,0-48.3-4.7-69.9-14.1c-21.7-9.4-40.7-22.2-56.6-38.2
			c-16-15.9-28.8-34.9-38.2-56.6c-9.3-21.5-14.1-45.1-14.1-69.9c0-24.9,4.8-48.5,14.2-70c9.3-21.7,22.2-40.8,38.1-57
			c15.9-16.2,34.9-29.1,56.6-38.4c21.5-9.4,45.2-14.2,70.1-14.2c24.8,0,48.5,4.8,70,14.2c21.5,9.3,40.6,22.2,56.6,38.4
			c15.9,16.2,28.7,35.3,38.2,57c9.3,21.5,14.1,45.2,14.1,70C3694.6,376.8,3689.8,400.3,3680.5,421.9z"/>
	</g>
	<g>
		<path class="st0" d="M4224.3,275.4c-9.5-9.6-21.1-17.4-34.2-23.2c-13-5.7-27-8.6-41.7-8.6c-14.6,0-28.7,2.9-41.7,8.7
			c-12.9,5.7-24.5,13.4-34.1,23.1c-9.5,9.8-17.3,21.2-23,34.2c-5.7,13.1-8.6,27.2-8.6,41.9c0,14.7,2.9,28.8,8.6,42
			c5.7,13,13.5,24.5,23,34.2c9.6,9.7,21.2,17.4,34.1,23.2c13,5.7,27.1,8.7,41.7,8.6c14.7,0,28.7-2.9,41.7-8.6
			c13.1-5.8,24.6-13.5,34.2-23.2c9.6-9.6,17.4-21.1,23-34.2c11.5-26.3,11.5-57.6,0-83.8C4241.7,296.6,4233.9,285.1,4224.3,275.4z"/>
		<path class="st0" d="M4148.4,0c-194.1,0-351.6,157.4-351.6,351.5c0,194.2,157.5,351.6,351.6,351.6
			c194.2,0,351.6-157.4,351.6-351.6C4500,157.5,4342.6,0,4148.4,0z M4313.2,421.9c-9.4,21.7-22.2,40.7-38.1,56.6
			c-16,16-35.1,28.8-56.6,38.2c-21.7,9.3-45.2,14.1-70.1,14.1c-24.9,0-48.3-4.7-70-14.1c-21.7-9.4-40.7-22.2-56.5-38.2
			c-16-15.9-28.8-34.9-38.3-56.6c-9.3-21.5-14.1-45.1-14.1-69.9c0-24.9,4.8-48.5,14.1-70c9.4-21.7,22.2-40.8,38.3-57
			c15.8-16.2,34.9-29.1,56.5-38.4c21.5-9.4,45.1-14.2,70-14.2c25,0,48.5,4.8,70.1,14.2c21.5,9.3,40.6,22.2,56.4,38.4
			c16.1,16.2,28.9,35.3,38.3,57c9.4,21.5,14.1,45.2,14.1,70C4327.3,376.8,4322.7,400.3,4313.2,421.9z"/>
	</g>
	<path class="st0" d="M1617.2,0.1c-194.1,0-351.5,157.4-351.5,351.5c0,194.2,157.4,351.5,351.5,351.5
		c194.2,0,351.6-157.4,351.6-351.5C1968.8,157.5,1811.4,0.1,1617.2,0.1z M1723.5,331.4c-1.4-7.8-3.6-15.7-6.8-23
		c-5.8-13.1-13.5-24.6-23-34.1c-9.7-9.6-21.1-17.4-34.1-23.2c-26.2-11.4-57.5-11.4-83.6,0c-13.1,5.8-24.5,13.5-34,23.2
		c-9.7,9.5-17.4,21.1-23.2,34.1c-5.1,11.6-7.8,23.9-8.4,36.8h-0.2v140.3v34.6h-71.3V350.2c0-25.4,4.6-49.1,13.8-70.7
		c9.1-21.6,22-40.7,38-56.6c16.2-15.9,35.3-28.7,56.9-37.9c21.6-9.1,45.2-13.8,70-13.8c24.9,0,48.5,4.7,70.1,14.2
		c21.6,9.4,40.6,22.2,56.6,38.1c15.9,16,28.8,35,38.3,56.6c6.9,16.1,11.3,33.4,13.1,51.3H1723.5z"/>
	<g>
		<path class="st0" d="M2250.5,241.4h-0.2c-43.8,1.3-74.9,16.5-92.3,45l-2.9,4.8h189.3l-2.9-4.7C2324,257,2293.4,241.8,2250.5,241.4
			z"/>
		<path class="st0" d="M2250,0.1c-194.1,0-351.6,157.4-351.6,351.5c0,194.2,157.5,351.5,351.6,351.5
			c194.2,0,351.6-157.4,351.6-351.5C2601.6,157.5,2444.3,0.1,2250,0.1z M2142.1,355.7c0.5,14.3,3.6,27.7,9.6,40.1
			c6,12.3,13.9,23.3,23.5,32.4c9.5,9.2,20.9,16.5,33.8,21.7c12.7,5.3,26.4,7.9,40.6,7.9c23.8,0,44.4-5.9,61.4-17.6
			c16.4-11.3,28.6-26.5,36.5-45.3h78.5c-7.2,23.3-16.9,43.5-28.4,60c-12.2,17.5-26.4,31.8-42,42.7c-15.8,10.9-32.9,18.9-51,24
			c-18.2,5.1-36.8,7.6-55.1,7.6c-24.9,0-48.4-4.7-70.1-14.2c-21.6-9.4-40.6-22.2-56.7-38.2c-16-15.9-28.8-35-38-56.5
			c-9.3-21.5-14-45.2-14-70c0-24.9,4.7-48.5,14-70.1c9.2-21.7,22.1-40.6,38-56.5c16-16,35.1-28.8,56.7-38.2
			c21.7-9.4,45.2-14.1,70.1-14.1c27.6,0,52.5,5.1,74.4,15.1c21.7,10,40.6,23.6,55.9,40.4c15.3,16.8,27.3,36.5,35.8,58.6
			c8.1,21.1,12.6,43.6,13.4,66.9H2142L2142.1,355.7z"/>
	</g>
</g>
</svg>
