<?xml version="1.0" encoding="utf-8"?>
<!-- Generator: Adobe Illustrator 23.0.3, SVG Export Plug-In . SVG Version: 6.00 Build 0)  -->
<svg version="1.1" id="Calque_1" xmlns="http://www.w3.org/2000/svg" xmlns:xlink="http://www.w3.org/1999/xlink" x="0px" y="0px"
	 viewBox="0 0 180.3 36" style="enable-background:new 0 0 180.3 36;" xml:space="preserve">
<style type="text/css">
	.st0{fill:#FFFFFF;}
</style>
<g>
	<path class="st0" d="M21.3,9.8c0.1,0,0.3,0,0.5-0.1c0.2-0.1,0.5-0.2,0.9-0.4s0.8-0.3,1.3-0.3c0.5-0.1,1-0.1,1.4,0
		c0.5,0,0.9,0.2,1.2,0.5c0.2,0.4,0.4,0.6,0.7,0.8s0.6,0.3,0.9,0.3c0.3,0,0.6-0.1,0.8-0.3s0.2-0.5,0.1-0.9c0-0.1-0.1-0.1-0.1-0.2
		c-0.1-0.5-0.3-0.9-0.7-1.2c-0.3-0.3-0.7-0.5-1.2-0.7c-0.5-0.2-1-0.3-1.5-0.4c-0.5-0.1-1-0.1-1.5-0.1c-0.4,0-0.9,0-1.4,0.1
		c-0.5,0.1-1.1,0.2-1.5,0.3c-0.5,0.1-0.8,0.3-1.1,0.6c-0.3,0.2-0.4,0.5-0.3,0.8C20.1,9.3,20.5,9.8,21.3,9.8z"/>
	<path class="st0" d="M23.7,5.2c0.3,0,0.6-0.1,0.8-0.3c0.2-0.2,0.4-0.5,0.6-0.9c0.2-0.7,0.2-1.4,0.1-2c-0.1-0.6-0.3-1-0.7-1.3
		s-0.7-0.5-1.2-0.5c-0.4,0-0.7,0.1-0.9,0.4s-0.3,0.6-0.2,1c0,0.1,0,0.3,0,0.4s-0.1,0.4-0.1,0.6c-0.2,0.5-0.3,0.8-0.2,1.1
		C22.1,4.7,22.7,5.2,23.7,5.2z"/>
	<path class="st0" d="M50.3,26.4c-0.1-0.5-0.3-0.9-0.7-1.2c-0.3-0.3-0.7-0.5-1.2-0.7c-0.5-0.2-0.9-0.3-1.5-0.3s-1-0.1-1.5-0.1
		c-0.4,0-0.9,0-1.4,0.1c-0.5,0.1-1.1,0.2-1.5,0.3c-0.5,0.1-0.9,0.3-1.2,0.6s-0.4,0.5-0.3,0.8c0.2,0.9,0.7,1.3,1.4,1.3
		c0.1,0,0.2,0,0.2,0c0.1,0,0.2-0.1,0.3-0.2c0.2-0.1,0.6-0.2,1-0.3c0.4-0.1,0.8-0.2,1.3-0.3c0.5-0.1,1-0.1,1.4,0
		c0.5,0,0.9,0.2,1.2,0.5c0.2,0.4,0.4,0.6,0.7,0.8c0.3,0.2,0.6,0.3,0.9,0.3c0.3,0,0.5-0.1,0.7-0.3c0.2-0.2,0.3-0.5,0.2-0.9
		C50.3,26.6,50.3,26.5,50.3,26.4z"/>
	<path class="st0" d="M70.7,13.4c-0.2,0-0.4,0.1-0.5,0.2S70,14,69.9,14.2c0,0.8-0.1,1.5-0.2,2.2c-0.1,0.6-0.3,1.1-0.6,1.5
		c-0.3,0.4-0.8,0.7-1.3,0.9s-1.3,0.3-2.3,0.3c0,0,0,0-0.1,0c0,0,0,0-0.1,0c-0.9,0-1.8-0.1-2.7-0.3c-0.9-0.2-1.7-0.4-2.6-0.7
		c0.8-0.6,1.3-1.2,1.6-1.8c0.3-0.6,0.4-1.3,0.2-2c-0.1-0.8-0.4-1.4-0.9-1.9s-1-0.9-1.7-1.2c-0.6-0.3-1.3-0.5-2.1-0.6
		c-0.8-0.1-1.5-0.1-2.3-0.1s-1.4,0.2-2.1,0.4s-1.2,0.4-1.6,0.7h0.1c-0.4,0.4-0.6,0.9-0.5,1.4s0.2,1,0.6,1.5s0.9,1.1,1.5,1.7
		c0.7,0.6,1.4,1.1,2.3,1.7c-1.1,0.4-2.1,0.7-3.1,0.9c-0.9,0.2-1.9,0.3-2.9,0.3c-0.8,0-1.3-0.1-1.6-0.3c-0.3-0.2-0.6-0.5-0.8-0.8
		s-0.3-0.7-0.3-1.1s0-0.7,0-1.1c-0.1-0.4-0.3-0.7-0.5-0.9c-0.2-0.2-0.5-0.2-0.8-0.2c-0.3,0-0.6,0.2-0.8,0.5c-0.3,0.3-0.5,0.6-0.7,1
		C43.4,17,43,17.6,42.5,18c-0.4,0.4-0.8,0.7-1.2,0.8s-0.8,0.2-1.2,0.3c-0.4,0-0.9,0-1.5,0c-1.3,0-2.3-0.4-3.1-1.1
		c-0.8-0.7-1.3-1.7-1.6-3.1c-0.1-0.3-0.1-0.6-0.2-0.7c-0.1-0.2-0.1-0.4-0.1-0.5c-0.3-0.4-0.7-0.7-1.2-0.7c-0.3,0-0.5,0.1-0.7,0.2
		s-0.3,0.4-0.3,0.8c-0.1,0.4-0.1,0.8-0.2,1.4c-0.1,0.6-0.2,1.1-0.3,1.7c-0.1,0.5-0.3,1-0.6,1.4c-0.3,0.4-0.7,0.6-1.2,0.6
		c-0.3,0-0.5-0.1-0.7-0.4c-0.2-0.2-0.3-0.5-0.5-0.9c-0.1-0.3-0.2-0.7-0.3-1.1c-0.1-0.4-0.1-0.7-0.2-1c-0.1-0.5-0.3-0.8-0.6-1.1
		c-0.3-0.2-0.5-0.4-0.9-0.4c-0.5,0-0.9,0.5-1.1,1.4c-0.1,0.5-0.2,1-0.3,1.3c-0.1,0.4-0.2,0.6-0.3,0.8c-0.4,0.6-0.7,1-1.2,1.1
		c-0.4,0.1-0.9,0.1-1.3-0.2c-0.5-0.3-0.9-0.7-1.4-1.3c-0.5-0.6-0.9-1.3-1.2-2.2c-0.3-0.5-0.6-0.8-0.9-0.9s-0.6-0.2-0.9-0.1
		c-0.3,0.1-0.5,0.3-0.6,0.6s-0.2,0.6-0.1,0.9c0.6,1.5,0.9,2.9,0.9,4.2c0,1.3-0.1,2.4-0.5,3.3c-0.4,1-0.9,1.8-1.6,2.4
		c-0.7,0.6-1.5,1.1-2.3,1.4c-0.9,0.3-1.8,0.5-2.8,0.4S8.5,27.4,7.6,27c-0.9-0.4-1.8-1-2.7-1.8s-1.6-1.8-2.2-2.9
		c-0.2-1.1-0.3-2.2-0.2-3.2s0.4-1.9,1.1-2.7c0.5-0.3,0.7-0.7,0.8-1s0-0.7-0.2-1s-0.5-0.5-0.9-0.6s-0.7,0-1.1,0.3
		c-0.6,0.6-1,1.2-1.3,1.8c-0.3,0.6-0.5,1.3-0.7,2S0,19.3,0,20s0.1,1.5,0.3,2.3C0.9,23.8,1.6,25,2.5,26s1.9,1.9,3,2.5
		c1.1,0.6,2.2,1.1,3.4,1.3c1.2,0.2,2.4,0.3,3.5,0.1c1.1-0.1,2.2-0.5,3.2-1c1-0.5,1.9-1.2,2.6-2c0.7-0.8,1.3-1.8,1.6-3
		c0.4-1.2,0.5-2.5,0.3-4c0.2,0.5,0.6,0.8,1.1,1s1.1,0.3,1.7,0.3c0.6,0,1.2-0.2,1.8-0.6c0.6-0.3,1.1-0.8,1.5-1.5
		c0.2,0.6,0.5,1.1,0.9,1.5c0.4,0.3,0.8,0.6,1.3,0.7s0.9,0.1,1.4,0c0.5-0.1,1-0.3,1.4-0.6s0.8-0.6,1.2-1c0.3-0.4,0.5-0.8,0.6-1.3
		c0.7,1,1.5,1.7,2.5,2.2c1,0.5,2.1,0.7,3.4,0.7l0,0c0.7,0,1.4,0,1.9,0c0.6-0.1,1.1-0.2,1.7-0.4c0.5-0.2,1-0.5,1.5-0.8
		c0.4-0.3,0.8-0.7,0.9-1.2c0.1,0.2,0.3,0.5,0.5,0.8c0.2,0.3,0.5,0.6,0.9,0.8c0.4,0.2,0.8,0.5,1.3,0.6c0.5,0.2,1.2,0.3,2.1,0.3l0,0
		c1.4,0,2.7-0.2,3.9-0.4c1.4-0.3,2.7-0.8,4.1-1.4c1.4,0.6,2.7,1.1,4,1.4c1.3,0.3,2.6,0.5,3.9,0.5c0,0,0,0,0.1,0c0,0,0,0,0.1,0
		c1.2,0,2.2-0.1,3-0.3c0.8-0.2,1.5-0.6,2-1.1c0.5-0.5,0.9-1.2,1.1-2.1s0.3-2,0.2-3.2C72.2,13.8,71.6,13.4,70.7,13.4z M57.2,17
		c-0.4-0.2-0.9-0.5-1.4-0.9c-0.5-0.4-0.9-0.7-1.3-1.1s-0.6-0.7-0.7-1.1c-0.1-0.3,0-0.6,0.4-0.9c0.4-0.1,0.9-0.2,1.4-0.3s1.1,0,1.6,0
		c0.5,0.1,1,0.2,1.4,0.5s0.6,0.6,0.7,1.1C59.6,15.2,58.9,16,57.2,17z"/>
	<path class="st0" d="M74,9.5c-0.1-0.5-0.3-0.9-0.7-1.2c-0.3-0.3-0.7-0.6-1.2-0.7s-0.9-0.3-1.5-0.4c-0.5-0.1-1-0.1-1.5-0.1
		c-0.4,0-0.9,0-1.4,0.1c-0.5,0.1-1.1,0.2-1.5,0.3S65.3,7.8,65,8.1c-0.3,0.2-0.4,0.5-0.3,0.8c0.1,0.5,0.3,0.8,0.5,1
		c0.2,0.2,0.6,0.3,0.9,0.3c0.1,0,0.3,0,0.5-0.1c0.2-0.1,0.5-0.2,0.9-0.3s0.9-0.3,1.4-0.3c0.5-0.1,1-0.1,1.4,0c0.5,0,0.9,0.2,1.2,0.5
		c0.1,0.3,0.4,0.6,0.7,0.8c0.3,0.2,0.6,0.3,0.9,0.3c0.3,0,0.6-0.1,0.7-0.3c0.2-0.2,0.2-0.5,0.1-0.9C74,9.6,74,9.5,74,9.5z"/>
	<path class="st0" d="M101.6,34.5c-0.1-0.5-0.3-0.9-0.7-1.2c-0.3-0.3-0.7-0.5-1.2-0.7c-0.5-0.2-0.9-0.3-1.5-0.4
		c-0.5-0.1-1-0.1-1.5-0.1c-0.4,0-0.9,0-1.4,0.1c-0.6,0.1-1.1,0.2-1.5,0.3c-0.5,0.1-0.9,0.3-1.2,0.6c-0.3,0.2-0.4,0.5-0.3,0.8
		c0.1,0.4,0.2,0.7,0.5,0.9s0.5,0.3,0.9,0.3c0.1,0,0.3,0,0.6-0.1c0.2-0.1,0.5-0.2,1-0.4s0.9-0.2,1.4-0.3c0.5-0.1,1-0.1,1.4,0
		c0.5,0.1,0.9,0.2,1.2,0.4c0.1,0.4,0.4,0.7,0.7,0.9s0.6,0.3,0.9,0.3c0.3,0,0.6-0.1,0.7-0.3c0.2-0.2,0.2-0.5,0.2-0.9
		C101.6,34.7,101.6,34.6,101.6,34.5z"/>
	<path class="st0" d="M108.9,7.4c0.1,0,0.3-0.1,0.5-0.2c0.2-0.1,0.5-0.2,0.9-0.4c0.4-0.1,0.9-0.2,1.3-0.3c0.5-0.1,1-0.1,1.4,0
		c0.5,0.1,0.9,0.2,1.2,0.5c0.2,0.3,0.4,0.6,0.7,0.8c0.3,0.2,0.6,0.3,0.9,0.3c0.3,0,0.5-0.1,0.7-0.3c0.2-0.2,0.2-0.5,0.2-0.9
		c0-0.1-0.1-0.2-0.1-0.3c-0.1-0.5-0.3-0.8-0.7-1.1s-0.8-0.6-1.2-0.7s-1-0.3-1.5-0.4s-1-0.1-1.5-0.1c-0.4,0-0.9,0-1.4,0.1
		s-1.1,0.2-1.5,0.4c-0.5,0.2-0.9,0.4-1.1,0.6c-0.3,0.2-0.4,0.5-0.3,0.8C107.7,7,108.1,7.4,108.9,7.4z"/>
	<path class="st0" d="M126.5,21.1c0.9-0.2,1.7-0.6,2.3-1.1s1.1-1.2,1.4-2.1s0.4-2,0.3-3.2c-0.2-0.8-0.7-1.2-1.5-1.2
		c-0.4,0-0.7,0.3-0.9,0.8c0,0.8-0.1,1.5-0.3,2.2c-0.2,0.6-0.5,1.1-0.9,1.5c-0.4,0.4-0.9,0.7-1.6,0.9c-0.6,0.2-1.5,0.3-2.4,0.3
		c0,0-0.1,0-0.1,0c0,0-0.1,0-0.1,0c-1.5,0-3.4-0.3-5.7-0.8c0.6-0.4,1-0.9,1.3-1.5s0.3-1.1,0.3-1.7c-0.1-0.6-0.3-1.2-0.6-1.7
		c-0.3-0.6-0.7-1-1.3-1.5s-1.1-0.8-1.9-1.1c-0.7-0.3-1.5-0.4-2.4-0.4c-1,0-1.7,0.3-2.2,0.9c-0.5,0.5-0.8,1.2-0.9,2
		c-0.1,0.8,0,1.6,0.4,2.5c0.3,0.9,0.9,1.6,1.7,2.3c-0.4,0.2-0.7,0.3-0.9,0.4s-0.6,0.2-0.9,0.3c-0.3,0.1-0.7,0.2-1.1,0.2
		c-0.4,0.1-0.9,0.1-1.5,0.1c-0.8,0-1.7,0-2.5-0.1c-0.9-0.1-1.7-0.1-2.4-0.1s-1.3,0-1.7,0c-0.5,0-0.7,0-0.8,0.1
		c-0.1,0-0.2,0.1-0.2,0.3c0,0.2,0,0.4,0,0.7c0.1,0.3,0.1,0.5,0.3,0.7c0.1,0.2,0.3,0.4,0.4,0.4c0.9,0.2,1.7,0.5,2.5,0.9
		c0.7,0.5,1.2,1.1,1.3,1.8c0.2,0.8,0,1.5-0.6,2.1s-1.3,1.1-2.3,1.5c-1,0.4-2,0.6-3.2,0.8c-1.2,0.1-2.3,0.1-3.4-0.2s-2-0.7-2.9-1.3
		c-0.8-0.6-1.4-1.5-1.6-2.6c-0.1-0.5-0.1-1.1,0-1.6c0.1-0.5,0.5-1,1-1.5c0.3-0.1,0.6-0.2,0.7-0.5c0.1-0.2,0.1-0.5,0-0.8
		c-0.1-0.3-0.2-0.5-0.5-0.7c-0.3-0.2-0.6-0.3-1-0.2c-0.6,0.2-1,0.4-1.4,0.7c-0.4,0.3-0.7,0.7-0.9,1.2c-0.2,0.5-0.3,1-0.4,1.6
		s0,1.2,0.1,1.8c0.3,1.4,0.9,2.5,1.6,3.3c0.7,0.9,1.6,1.5,2.5,2c1,0.5,2,0.8,3.2,1c1.2,0.2,2.3,0.3,3.5,0.3c1.5-0.1,2.8-0.4,3.8-0.9
		s2-1,2.6-1.6c0.7-0.6,1.1-1.3,1.4-2.1c0.3-0.7,0.3-1.5,0.2-2.1c-0.1-0.6-0.3-1.1-0.7-1.6s-0.8-1-1.5-1.3c0.3,0.1,0.8,0.2,1.5,0.2
		c0.6,0.1,1.3,0.1,2,0.1c0,0,0,0,0,0c0.6,0,1.2,0,1.7-0.1c0.6-0.1,1.1-0.2,1.6-0.3s1-0.3,1.5-0.5c0.5-0.2,1.1-0.5,1.7-0.8
		c1.4,0.6,2.9,1,4.4,1.3c1.5,0.3,3,0.4,4.6,0.4c0,0,0.1,0,0.1,0c0,0,0.1,0,0.1,0C124.5,21.5,125.6,21.4,126.5,21.1z M115.4,15.7
		c-0.3,0.5-0.9,0.9-1.9,1.3c-0.6-0.4-1.1-0.8-1.3-1.2c-0.3-0.4-0.4-0.9-0.4-1.3s0.1-0.8,0.4-1.1s0.6-0.5,0.9-0.6
		c0.4-0.1,0.9,0,1.4,0.3c0.5,0.3,0.8,0.6,1.1,1.1C115.7,14.7,115.7,15.2,115.4,15.7z"/>
	<path class="st0" d="M149.1,6.2c0.3,0,0.5-0.1,0.8-0.3c0.2-0.2,0.4-0.5,0.5-0.9c0.1-0.4,0.2-0.7,0.2-1s0-0.6-0.1-0.9
		c-0.2-1.1-0.9-1.7-1.9-1.7c-0.8,0-1.1,0.4-0.9,1.3c0,0.2,0,0.3-0.1,0.5l-0.1,0.6c-0.1,0.2-0.1,0.4-0.1,0.6s0,0.3,0,0.4
		C147.5,5.7,148.1,6.2,149.1,6.2z"/>
	<path class="st0" d="M154.1,12.4c-0.4-0.6-0.8-1.1-1.3-1.5c-0.5-0.4-1.1-0.7-1.7-0.9c-0.6-0.2-1.2-0.3-1.8-0.3
		c-0.8,0-1.4,0.2-1.9,0.6s-0.8,0.8-1,1.3s-0.2,1.1-0.2,1.7c0.1,0.6,0.3,1.2,0.6,1.8s0.7,1.1,1.3,1.6s1.2,0.8,2,1.1
		c0.5,0.1,0.9,0.1,1.1-0.1c0.3-0.2,0.4-0.4,0.4-0.6c0-0.2,0-0.5-0.1-0.7c-0.1-0.2-0.3-0.3-0.6-0.4c-0.4,0-0.7-0.3-1.1-0.6
		c-0.4-0.4-0.7-0.8-0.9-1.2c-0.2-0.4-0.3-0.9-0.3-1.3c0-0.4,0.3-0.7,0.8-0.8c0.2,0,0.5,0,0.8,0.1s0.6,0.2,0.9,0.4
		c0.3,0.2,0.6,0.4,0.8,0.8c0.2,0.3,0.4,0.7,0.5,1.2c0.2,1.7-0.3,3-1.6,3.7c-1.1,0.6-2.7,1-4.8,1c-0.5,0-0.9,0-1.2-0.1
		c-0.4-0.1-0.7-0.2-0.9-0.3c-0.3-0.1-0.4-0.3-0.6-0.5c-0.1-0.2-0.2-0.4-0.2-0.6c-0.1-0.4-0.3-0.6-0.6-0.9c-0.3-0.2-0.6-0.3-0.9-0.4
		c-0.3,0-0.6,0.1-0.8,0.3c-0.2,0.2-0.3,0.5-0.3,1c0.2,1.5,0.2,2.8,0,3.9c-0.2,1.1-0.6,2-1.2,2.6c-0.6,0.7-1.4,1.2-2.3,1.6
		c-0.9,0.4-2,0.6-3.2,0.7c-0.1,0-0.2,0.1-0.3,0.2c0-0.1,0-0.2,0-0.4c0-0.1,0-0.2-0.1-0.2c-0.1-0.5-0.3-0.9-0.7-1.2s-0.7-0.5-1.2-0.7
		c-0.5-0.2-0.9-0.3-1.5-0.4c-0.5-0.1-1-0.1-1.5-0.1c-0.4,0-0.9,0-1.4,0.1c-0.6,0.1-1.1,0.2-1.5,0.3c-0.5,0.1-0.9,0.3-1.2,0.6
		c-0.3,0.2-0.4,0.5-0.3,0.8c0.1,0.4,0.2,0.7,0.5,0.9s0.5,0.3,0.9,0.3c0.1,0,0.3,0,0.6-0.1c0.2-0.1,0.5-0.2,1-0.4s0.9-0.2,1.4-0.3
		c0.5-0.1,1-0.1,1.4,0s0.9,0.2,1.2,0.4c0.1,0.4,0.4,0.7,0.7,0.9c0.3,0.2,0.6,0.3,0.9,0.3c0.3,0,0.5-0.1,0.7-0.2c0,0.1,0,0.2,0,0.3
		c0.2,0.8,0.6,1.2,1.4,1.2c1.4-0.1,2.6-0.3,3.6-0.7s1.9-0.9,2.6-1.5s1.2-1.5,1.6-2.5c0.4-1,0.6-2.2,0.7-3.6c0.3,0.2,0.6,0.3,0.9,0.4
		c0.4,0.1,0.7,0.2,1.1,0.2c0.2,0,0.4,0.1,0.7,0.1l0,0c0.2,0,0.5,0,0.7,0c0.2,0,0.3,0,0.5,0c0.1,0,0.2,0,0.3,0c0.9,0,1.7-0.1,2.4-0.3
		c1.2-0.2,2.2-0.6,3-1.2c0.8-0.6,1.4-1.3,1.8-2.2c0.4-0.9,0.5-2,0.3-3.3C154.8,13.7,154.5,13,154.1,12.4z"/>
	<path class="st0" d="M162.4,12.1c0.4,1.2,0.8,2.6,1.1,4.3c0.2,0.8,0.7,1.2,1.5,1.2c0.8,0,1.1-0.5,0.9-1.6c-0.4-1.7-0.8-3.3-1.4-4.8
		s-1.2-2.8-2-4s-1.7-2.4-2.7-3.4s-2.3-2.1-3.6-3c-0.2-0.2-0.5-0.4-0.8-0.4c-0.8,0-1.1,0.4-0.9,1.3c0.1,0.3,0.3,0.6,0.7,0.9
		c1.4,1.1,2.5,2.2,3.5,3.1c0.9,1,1.7,2,2.3,3S162,10.8,162.4,12.1z"/>
	<path class="st0" d="M163.8,26.7h-0.6c-0.1,0-0.2,0-0.3,0c-0.1,0-0.3,0-0.4,0.1c-0.2,0-0.3,0-0.4,0c-0.1,0-0.2,0-0.3,0
		c-0.9,0-1.4-0.3-1.5-1c-0.1-0.2-0.1-0.4,0-0.6c0-0.2,0.1-0.4,0.2-0.5c0.2-0.3,0.6-0.5,1-0.5c0.1,0,0.2,0,0.3,0
		c0.2,0.1,0.3,0.1,0.5,0.1c0.6,0,0.8-0.3,0.7-0.8c-0.1-0.6-0.7-1-1.8-1c-0.9,0-1.6,0.3-2.1,1c-0.5,0.7-0.6,1.5-0.4,2.4
		c0.2,1.1,0.8,1.8,1.7,2.3c-0.5,0.3-0.8,0.6-1,0.9s-0.3,0.6-0.2,0.8c0.1,0.5,0.5,0.8,1,0.8c0.1,0,0.2,0,0.3-0.1
		c0.1-0.1,0.2-0.1,0.2-0.2c0.2-0.1,0.5-0.4,0.9-0.7c0.5-0.3,1.1-0.7,1.9-1.1c0.4-0.1,0.6-0.3,0.8-0.5c0.2-0.2,0.2-0.4,0.2-0.6
		C164.5,27.1,164.2,26.9,163.8,26.7z"/>
	<path class="st0" d="M172.1,9.8c-0.4-1.6-0.9-3.1-1.5-4.6c-0.6-1.5-1.3-2.9-2-4.1c-0.3-0.7-0.7-1-1.4-1c-0.8,0-1.2,0.4-1,1.2l0,0.1
		c0,0,0.1,0,0.1,0.1c0,0,0.3,0.5,0.9,1.6s1.1,2.3,1.7,3.8s0.9,2.7,1.1,3.7c0.3,1.2,0.4,2.3,0.5,3.3c0.1,1,0,1.9-0.3,2.7
		c-0.3,0.8-0.7,1.4-1.4,1.8s-1.6,0.7-2.9,0.8c-1.1,0-2.4-0.3-3.8-1l-2.2-1c-0.8,0-1.1,0.4-0.9,1.3c0.1,0.4,0.4,0.8,0.9,1.2
		c0.5,0.4,1.3,0.7,2.3,1.1c1.7,0.5,3.1,0.8,4.2,0.8c1.7,0.1,3-0.1,3.9-0.7s1.6-1.5,2-2.6c0.4-1.1,0.6-2.4,0.5-3.8
		S172.5,11.3,172.1,9.8z"/>
	<path class="st0" d="M180.1,11.6c-0.2-1.6-0.6-3.3-1.1-5.1s-1.2-3.6-1.9-5.4c-0.3-0.7-0.8-1-1.5-1c-0.8,0-1.1,0.4-0.8,1.2l0,0.1
		l0,0.1c0.4,0.9,0.7,1.8,1.1,2.8s0.7,2,0.9,3s0.5,2.1,0.7,3.1c0.2,1.1,0.3,2.1,0.3,3s-0.1,1.9-0.3,2.7c-0.2,0.8-0.5,1.6-0.9,2.2
		c-0.1,0.1-0.1,0.3-0.1,0.4c0,0.1,0,0.3,0.1,0.4c0.2,0.8,0.7,1.2,1.5,1.2c0.2,0,0.3,0,0.4-0.1c0.1-0.1,0.2-0.2,0.4-0.4
		c0.7-1.1,1.1-2.4,1.3-3.8S180.3,13.2,180.1,11.6z"/>
</g>
</svg>
